<?xml version="1.0" encoding="UTF-8" standalone="no"?>
<!DOCTYPE svg PUBLIC "-//W3C//DTD SVG 1.0//EN"
 "http://www.w3.org/TR/2001/REC-SVG-20010904/DTD/svg10.dtd" [
 <!ATTLIST svg xmlns:xlink CDATA #FIXED "http://www.w3.org/1999/xlink">
]>
<!-- Generated by Graphviz version 2.20.2 (Wed Jul &#160;9 19:59:08 GMT 2008)
 -->
<!-- Title: G Pages: 1 -->
<svg width="244pt" height="196pt"
 viewBox="0.00 0.00 244.00 196.00" xmlns="http://www.w3.org/2000/svg" xmlns:xlink="http://www.w3.org/1999/xlink">
<g id="graph0" class="graph" transform="scale(1 1) rotate(0) translate(4 192)">
<title>G</title>
<!-- 7 -->
<g id="node1" class="node"><title>7</title>
<ellipse style="fill:white;stroke:black;" cx="115" cy="-170" rx="18" ry="18"/>
<text text-anchor="middle" x="115" y="-165.4" style="font-family:Times New Roman;font-size:14.00;">7</text>
</g>
<!-- 11 -->
<g id="node4" class="node"><title>11</title>
<ellipse style="fill:white;stroke:black;" cx="20" cy="-96" rx="20.1246" ry="20.1246"/>
<text text-anchor="middle" x="20" y="-91.4" style="font-family:Times New Roman;font-size:14.00;">11</text>
</g>
<!-- 7&#45;&gt;11 -->
<g id="edge2" class="edge"><title>7&#45;&gt;11</title>
<path style="fill:none;stroke:black;" d="M101,-159C86,-147 62,-128 44,-114"/>
<polygon style="fill:black;stroke:black;" points="46.1,-111.2 36,-108 41.9,-116.8 46.1,-111.2"/>
</g>
<!-- 8 -->
<g id="node5" class="node"><title>8</title>
<ellipse style="fill:white;stroke:black;" cx="116" cy="-96" rx="18" ry="18"/>
<text text-anchor="middle" x="116" y="-91.4" style="font-family:Times New Roman;font-size:14.00;">8</text>
</g>
<!-- 7&#45;&gt;8 -->
<g id="edge4" class="edge"><title>7&#45;&gt;8</title>
<path style="fill:none;stroke:black;" d="M115,-152C116,-143 116,-134 116,-124"/>
<polygon style="fill:black;stroke:black;" points="119.5,-124 116,-114 112.5,-124 119.5,-124"/>
</g>
<!-- 5 -->
<g id="node2" class="node"><title>5</title>
<ellipse style="fill:white;stroke:black;" cx="20" cy="-170" rx="18" ry="18"/>
<text text-anchor="middle" x="20" y="-165.4" style="font-family:Times New Roman;font-size:14.00;">5</text>
</g>
<!-- 5&#45;&gt;11 -->
<g id="edge6" class="edge"><title>5&#45;&gt;11</title>
<path style="fill:none;stroke:black;" d="M20,-152C20,-144 20,-135 20,-126"/>
<polygon style="fill:black;stroke:black;" points="23.5001,-126 20,-116 16.5001,-126 23.5001,-126"/>
</g>
<!-- 3 -->
<g id="node3" class="node"><title>3</title>
<ellipse style="fill:white;stroke:black;" cx="215" cy="-170" rx="18" ry="18"/>
<text text-anchor="middle" x="215" y="-165.4" style="font-family:Times New Roman;font-size:14.00;">3</text>
</g>
<!-- 3&#45;&gt;8 -->
<g id="edge8" class="edge"><title>3&#45;&gt;8</title>
<path style="fill:none;stroke:black;" d="M200,-159C184,-147 158,-127 139,-113"/>
<polygon style="fill:black;stroke:black;" points="141.1,-110.2 131,-107 136.9,-115.8 141.1,-110.2"/>
</g>
<!-- 10 -->
<g id="node8" class="node"><title>10</title>
<ellipse style="fill:white;stroke:black;" cx="216" cy="-20" rx="20.1246" ry="20.1246"/>
<text text-anchor="middle" x="216" y="-15.4" style="font-family:Times New Roman;font-size:14.00;">10</text>
</g>
<!-- 3&#45;&gt;10 -->
<g id="edge10" class="edge"><title>3&#45;&gt;10</title>
<path style="fill:none;stroke:black;" d="M215,-152C215,-127 215,-81 216,-50"/>
<polygon style="fill:black;stroke:black;" points="219.5,-50 216,-40 212.5,-50 219.5,-50"/>
</g>
<!-- 2 -->
<g id="node6" class="node"><title>2</title>
<ellipse style="fill:white;stroke:black;" cx="20" cy="-20" rx="18" ry="18"/>
<text text-anchor="middle" x="20" y="-15.4" style="font-family:Times New Roman;font-size:14.00;">2</text>
</g>
<!-- 11&#45;&gt;2 -->
<g id="edge12" class="edge"><title>11&#45;&gt;2</title>
<path style="fill:none;stroke:black;" d="M20,-76C20,-67 20,-57 20,-48"/>
<polygon style="fill:black;stroke:black;" points="23.5001,-48 20,-38 16.5001,-48 23.5001,-48"/>
</g>
<!-- 9 -->
<g id="node7" class="node"><title>9</title>
<ellipse style="fill:white;stroke:black;" cx="115" cy="-20" rx="18" ry="18"/>
<text text-anchor="middle" x="115" y="-15.4" style="font-family:Times New Roman;font-size:14.00;">9</text>
</g>
<!-- 11&#45;&gt;9 -->
<g id="edge14" class="edge"><title>11&#45;&gt;9</title>
<path style="fill:none;stroke:black;" d="M36,-83C51,-71 76,-52 93,-37"/>
<polygon style="fill:black;stroke:black;" points="95.1,-39.8 101,-31 90.9,-34.2 95.1,-39.8"/>
</g>
<!-- 11&#45;&gt;10 -->
<g id="edge16" class="edge"><title>11&#45;&gt;10</title>
<path style="fill:none;stroke:black;" d="M39,-88C48,-84 59,-80 69,-76 110,-60 158,-41 187,-31"/>
<polygon style="fill:black;stroke:black;" points="189.015,-33.9636 197,-27 186.415,-27.4643 189.015,-33.9636"/>
</g>
<!-- 8&#45;&gt;9 -->
<g id="edge18" class="edge"><title>8&#45;&gt;9</title>
<path style="fill:none;stroke:black;" d="M116,-78C115,-69 115,-58 115,-48"/>
<polygon style="fill:black;stroke:black;" points="118.5,-48 115,-38 111.5,-48 118.5,-48"/>
</g>
</g>
</svg>
